<?xml version="1.0" encoding="UTF-8" standalone="no"?>
<!DOCTYPE svg PUBLIC "-//W3C//DTD SVG 1.1//EN"
"http://www.w3.org/Graphics/SVG/1.1/DTD/svg11.dtd">


<!-- Page 1 -->
<svg x="0" y="0" width="1210" height="935" viewBox="0 50 1030 690" version="1.1" xmlns="http://www.w3.org/2000/svg" xmlns:xlink="http://www.w3.org/1999/xlink"
style="display: block;margin-left: auto;margin-right: auto;" preserveAspectRatio="meet">
<defs>

<style type="text/css"><![CDATA[

.g2_1{
fill: none;
stroke: #000000;
stroke-width: 0.93958336;
stroke-linecap: butt;
stroke-linejoin: round;
stroke-dasharray: 4,3;
}
.g1_1{
}

.s3_1{
font-size: 15.03px;
font-family: Arial_6;
fill: #000000;
}
.s2_1{
font-size: 12.47px;
font-family: Arial_6;
fill: #000000;
}
.s1_1{
font-size: 17.60px;
font-family: Arial_6;
fill: #000000;
}

]]></style>

</defs>
<path d="M0,0
L0,935
L1210,935
L1210,0 Z " 
fill="none" stroke="none" />
<text 
x="107" 
y="47" 
dx="0,-0.1,0,0,0,-0.1,0,-0.1,0.1,0,-0.1" 
class="s1_1"
></text>

<text 
x="107" 
y="69" 
dx="0,0,0,-0.1,0,-0.1,0,0,0,0,0,0,0,0,0,0,-0.1,0,0.1,0,-0.1,-0.1,-0.1,0,-0.2,0,-0.1" 
class="s1_1"
>%gender' BASKETBALL TOURNAMENT</text>

<text 
x="107" 
y="91" 
dx="0,-0.1,-0.1,-0.1,-0.1,0,-0.1,-0.1,-0.1" 
class="s1_1"
>%season</text>

<text 
x="572" 
y="135" 
dx="0,0" 
class="s2_1"
>#1</text>

<text 
x="304" 
y="156" 
dx="0,0,0,0,0,0" 
class="s2_1"
>Game 9</text>

<text 
x="568" 
y="156" 
dx="0,-0.1,-0.2" 
class="s2_1"
>Bye</text>

<text 
x="683" 
y="156" 
dx="0,0,0,0,0,0" 
class="s2_1"
>Game 7</text>

<text 
x="557" 
y="200" 
dx="0,0,0,0,0,0" 
class="s2_1"
>Game 1</text>

<text 
x="806" 
y="200" 
dx="0,0,0,0,0,0,0" 
class="s2_1"
>Game 11</text>

<text 
x="291" 
y="222" 
dx="0,0,0.1,0,0,0,0.1,0,0,0.1,0,0" 
class="s2_1"
>%gameTime9.</text>

<text 
x="572" 
y="222" 
dx="0,0" 
class="s2_1"
>#8</text>

<text 
x="665" 
y="222" 
dx="0,0,0,0,0.1,0,0.1,0,0.3,0,0.1,0,0" 
class="s2_1"
>%gameTime7</text>

<text 
x="174" 
y="244" 
dx="0,0,0,0,0,0,0" 
class="s2_1"
>Game 13</text>

<text 
x="430" 
y="244" 
dx="0,0,0,0,0,0" 
class="s2_1"
>Game 5</text>

<text 
x="572" 
y="244" 
dx="0,0" 
class="s2_1"
>#9</text>

<text 
x="541" 
y="266" 
dx="0,0,0,0,0.1,0,0.1,0,0.3,0,0.1,0" 
class="s2_1"
>%gameTime1</text>

<text 
x="800" 
y="266" 
dx="0,0,0,0,0.1,0,0.1,0,0.1,0,0" 
class="s2_1"
>%gameTime11</text>

<text 
x="557" 
y="287" 
dx="0,0,0,0,0,0" 
class="s2_1"
>Game 3</text>

<text 
x="166" 
y="309" 
dx="0,0,0,0,0.1,0,0.1,0,0,0,0" 
class="s2_1"
>%gameTime13</text>

<text 
x="412" 
y="309" 
dx="0,0,0,0,0.1,0,0.1,0,0.3,0,0.1,0,0" 
class="s2_1"
>%gameTime5</text>

<text 
x="572" 
y="309" 
dx="0,0" 
class="s2_1"
>#5</text>

<text 
x="910" 
y="307" 
dx="0,0,0,-0.1,0,-0.1,0,0,0,0,0,0" 
class="s2_1"
>CHAMPIONSHIP</text>

<text 
x="42" 
y="331" 
dx="0,0,0,0,0,0,0,-0.1,0,0,0" 
class="s2_1"
>5/6th Place</text>

<text 
x="572" 
y="331" 
dx="0,0" 
class="s2_1"
>#4</text>

<text 
x="933" 
y="331" 
dx="0,0,0,0,0,0,0" 
class="s2_1"
>Game 15</text>

<text 
x="47" 
y="353" 
dx="0,0,0,0,0,0,0" 
class="s2_1"
>Game 16</text>

<text 
x="541" 
y="353" 
dx="0,0,0,0,0.1,0,0.1,0,0.3,0,0.1,0" 
class="s2_1"
>%gameTime3</text>

<text 
x="557" 
y="375" 
dx="0,0,0,0,0,0" 
class="s2_1"
>Game 4</text>

<text 
x="572" 
y="397" 
dx="0,0" 
class="s2_1"
>#3</text>

<text 
x="925" 
y="397" 
dx="0,0,0,0,0.1,0,0.1,0,0,0,0" 
class="s2_1"
>%gameTimeC</text>

<text 
x="43" 
y="418" 
dx="0,0,0,0,0.1,0,0.1,0,0.1,0,0.1" 
class="s2_1"
>%gameTime16</text>

<text 
x="166" 
y="418" 
dx="0,0,0,0,0.1,0,0.1,0,0,0,0" 
class="s2_1"
>%gameTime14</text>

<text 
x="430" 
y="418" 
dx="0,0,0,0,0,0" 
class="s2_1"
>Game 6</text>

<text 
x="572" 
y="418" 
dx="0,0" 
class="s2_1"
>#6</text>

<text 
x="36" 
y="440" 
dx="0,0,0,0,0,0,0,0,0,0.1,0,0,0" 
class="s2_1"
>at Culbertson</text>

<text 
x="174" 
y="440" 
dx="0,0,0,0,0,0,0" 
class="s2_1"
>Game 14</text>

<text 
x="541" 
y="440" 
dx="0,0,0,0,0.1,0,0.1,0,0.3,0,0.1,0" 
class="s2_1"
>%gameTime4</text>

<text 
x="557" 
y="462" 
dx="0,0,0,0,0,0" 
class="s2_1"
>Game 2</text>

<text 
x="806" 
y="462" 
dx="0,0,0,0,0,0,0" 
class="s2_1"
>Game 12</text>

<text 
x="412" 
y="484" 
dx="0,0,0,0,0.1,0,0.1,0,0.3,0,0.1,0,0" 
class="s2_1"
>%gameTime6</text>

<text 
x="572" 
y="484" 
dx="0,0" 
class="s2_1"
>#7</text>

<text 
x="166" 
y="506" 
dx="0,0,0,0,0.1,0,0.1,0,0,0,0" 
class="s2_1"
>%gameTime14</text>

<text 
x="300" 
y="506" 
dx="0,0,0,0,0,0,0" 
class="s2_1"
>Game 10</text>

<text 
x="568" 
y="506" 
dx="0,0,0" 
class="s2_1"
>#10</text>

<text 
x="683" 
y="506" 
dx="0,0,0,0,0,0" 
class="s2_1"
>Game 8</text>

<text 
x="541" 
y="527" 
dx="0,0,0,0,0.1,0,0.1,0,0.3,0,0.1,0" 
class="s2_1"
>%gameTime2</text>

<text 
x="800" 
y="527" 
dx="0,0,0,0,0.1,0,0.1,0,0.1,0,0" 
class="s2_1"
>%gameTime12</text>

<text 
x="294" 
y="571" 
dx="0,0,0,0,0.1,0,0.1,0,0.1,0,0" 
class="s2_1"
>%gameTime10</text>

<text 
x="568" 
y="571" 
dx="0,-0.1,-0.2" 
class="s2_1"
>Bye</text>

<text 
x="665" 
y="571" 
dx="0,0,0,0,0.1,0,0.1,0,0.3,0,0.1,0,0" 
class="s2_1"
>%gameTime8</text>

<text 
x="572" 
y="593" 
dx="0,0" 
class="s2_1"
>#2</text>

<text 
x="107" 
y="658" 
dx="0,0.6,0,0,0.1,0.1,-0.1,0,0.1,0.2,0,-0.1,0.1,-0.2,0.1,0,0,0.1,0.1,0,0.1,0.1,0.1,0,0.1,0.1,0,0.1,0.1,0,0.1,0.1,0,0.1,0,0.1,0.1,0,0,0,0,-0.1,0,0,0,0.1,0.1,0,0" 
class="s3_1"
>Winner of games 13 and 14 advance to Divisionals.</text>

<text 
x="107" 
y="680" 
dx="0,0,0,0.1,0,0.1,0,-0.2,0.1,0.1,-0.1,0,0,0.1,0.1,0.1,0.1,0.1,0,0.1,0.1,0.1,-0.2,0,-0.4,0,-0.1,0,0,0.1,0.1,0,0.1,0.1,0,0,-0.2,0.1,0.1,0,0.1,0.1,0,0.1,-0.1,0.1,0,0.1,0,0,0,0.1,0,0.1,0,0,-0.4,0.1,-0.1,0,0,0.1,0.1,0.1,0,0.1,0,0.1,0,0.1,0,0,0,0.1" 
class="s3_1"
>The higher seeded team will be designated 3rd place, lower seed 4th place.</text>

<text 
x="107" 
y="702" 
dx="0,0.8,-0.1,-0.1,-0.1,-0.1,0,0.1,-0.1,0.2,0,-0.1,-0.1,0.4,-0.1,0,-0.1,-0.1,0,-0.4,-0.1,-0.1,-0.1,0,-0.1,-0.1,0,-0.1,-0.1,0,-0.1,-0.1,-0.1,-0.1,0,-0.1,-0.1,0,-0.1,0,-0.1,0,-0.1,-0.1,-0.1,0,-0.1" 
class="s1_1"
>Winner of game 16 will be designated 5th place.</text>

<path fill-rule="evenodd" d="M294.9,162.1l63.2,0l0,-1.3l-63.2,0l0,1.3Z" class="g1_1" />
<path fill-rule="evenodd" d="M547.9,162.1l63.3,0l0,-1.3l-63.3,0l0,1.3Z" class="g1_1" />
<path fill-rule="evenodd" d="M294.9,183.9l63.2,0l0,-1.3l-63.2,0l0,1.3Z" class="g1_1" />
<path fill-rule="evenodd" d="M294.9,205.8l63.2,0l0,-1.3l-63.2,0l0,1.3Z" class="g1_1" />
<path fill-rule="evenodd" d="M546.6,162.1l1.3,0l0,-44.9l-1.3,0l0,44.9Z" class="g1_1" />
<path fill-rule="evenodd" d="M609.9,162.1l1.3,0l0,-43.6l-1.3,0l0,43.6Z" class="g1_1" />
<path fill-rule="evenodd" d="M547.9,205.8l63.3,0l0,-1.3l-63.3,0l0,1.3Z" class="g1_1" />
<path fill-rule="evenodd" d="M674.4,205.8l63.3,0l0,-1.3l-63.3,0l0,1.3Z" class="g1_1" />
<path fill-rule="evenodd" d="M547.9,227.6l63.3,0l0,-1.3l-63.3,0l0,1.3Z" class="g1_1" />
<path fill-rule="evenodd" d="M168.3,249.4l63.3,0l0,-1.3l-63.3,0l0,1.3Z" class="g1_1" />
<path fill-rule="evenodd" d="M421.4,249.4l63.2,0l0,-1.3l-63.2,0l0,1.3Z" class="g1_1" />
<path fill-rule="evenodd" d="M547.9,249.4l63.3,0l0,-1.3l-63.3,0l0,1.3Z" class="g1_1" />
<path fill-rule="evenodd" d="M168.3,271.2l63.3,0l0,-1.3l-63.3,0l0,1.3Z" class="g1_1" />
<path fill-rule="evenodd" d="M168.3,293l63.3,0l0,-1.2l-63.3,0l0,1.2Z" class="g1_1" />
<path fill-rule="evenodd" d="M421.4,293l63.2,0l0,-1.2l-63.2,0l0,1.2Z" class="g1_1" />
<path fill-rule="evenodd" d="M546.6,249.4l1.3,0l0,-44.9l-1.3,0l0,44.9Z" class="g1_1" />
<path fill-rule="evenodd" d="M609.9,249.4l1.3,0l0,-43.6l-1.3,0l0,43.6Z" class="g1_1" />
<path fill-rule="evenodd" d="M547.9,336.7l63.3,0l0,-1.3l-63.3,0l0,1.3Z" class="g1_1" />
<path fill-rule="evenodd" d="M41.8,358.5l63.3,0l0,-1.3l-63.3,0l0,1.3Z" class="g1_1" />
<path fill-rule="evenodd" d="M41.8,380.3l63.3,0l0,-1.3l-63.3,0l0,1.3Z" class="g1_1" />
<path fill-rule="evenodd" d="M546.6,336.7l1.3,0l0,-44.9l-1.3,0l0,44.9Z" class="g1_1" />
<path fill-rule="evenodd" d="M609.9,336.7l1.3,0l0,-43.7l-1.3,0l0,43.7Z" class="g1_1" />
<path fill-rule="evenodd" d="M547.9,380.3l63.3,0l0,-1.3l-63.3,0l0,1.3Z" class="g1_1" />
<path fill-rule="evenodd" d="M41.8,402.2l63.3,0l0,-1.3l-63.3,0l0,1.3Z" class="g1_1" />
<path fill-rule="evenodd" d="M420.1,293l1.3,0l0,-44.9l-1.3,0l0,44.9Z" class="g1_1" />
<path fill-rule="evenodd" d="M483.3,293l1.3,0l0,-43.6l-1.3,0l0,43.6Z" class="g1_1" />
<path fill-rule="evenodd" d="M421.4,424l63.2,0l0,-1.3l-63.2,0l0,1.3Z" class="g1_1" />
<path fill-rule="evenodd" d="M167,293l1.3,0l0,-44.9l-1.3,0l0,44.9Z" class="g1_1" />
<path fill-rule="evenodd" d="M230.3,293l1.3,0l0,-43.6l-1.3,0l0,43.6Z" class="g1_1" />
<path fill-rule="evenodd" d="M168.3,445.8l63.3,0l0,-1.3l-63.3,0l0,1.3Z" class="g1_1" />
<path fill-rule="evenodd" d="M168.3,467.6l63.3,0l0,-1.3l-63.3,0l0,1.3Z" class="g1_1" />
<path fill-rule="evenodd" d="M421.4,467.6l63.2,0l0,-1.3l-63.2,0l0,1.3Z" class="g1_1" />
<path fill-rule="evenodd" d="M546.6,424l1.3,0l0,-45l-1.3,0l0,45Z" class="g1_1" />
<path fill-rule="evenodd" d="M609.9,424l1.3,0l0,-43.7l-1.3,0l0,43.7Z" class="g1_1" />
<path fill-rule="evenodd" d="M547.9,467.6l63.3,0l0,-1.3l-63.3,0l0,1.3Z" class="g1_1" />
<path fill-rule="evenodd" d="M799.7,249.4l1.3,0l0,-44.9l-1.3,0l0,44.9Z" class="g1_1" />
<path fill-rule="evenodd" d="M862.9,249.4l1.3,0l0,-43.6l-1.3,0l0,43.6Z" class="g1_1" />
<path fill-rule="evenodd" d="M168.3,489.4l63.3,0l0,-1.3l-63.3,0l0,1.3Z" class="g1_1" />
<path fill-rule="evenodd" d="M547.9,489.4l63.3,0l0,-1.3l-63.3,0l0,1.3Z" class="g1_1" />
<path fill-rule="evenodd" d="M293.6,205.8l1.3,0l0,-45l-1.3,0l0,45Z" class="g1_1" />
<path fill-rule="evenodd" d="M356.8,205.8l1.3,0l0,-43.7l-1.3,0l0,43.7Z" class="g1_1" />
<path fill-rule="evenodd" d="M294.9,511.2l63.2,0l0,-1.2l-63.2,0l0,1.2Z" class="g1_1" />
<path fill-rule="evenodd" d="M547.9,511.2l63.3,0l0,-1.2l-63.3,0l0,1.2Z" class="g1_1" />
<path fill-rule="evenodd" d="M673.1,205.8l1.3,0l0,-45l-1.3,0l0,45Z" class="g1_1" />
<path fill-rule="evenodd" d="M736.4,205.8l1.3,0l0,-43.7l-1.3,0l0,43.7Z" class="g1_1" />
<path fill-rule="evenodd" d="M674.4,511.2l63.3,0l0,-1.2l-63.3,0l0,1.2Z" class="g1_1" />
<path fill-rule="evenodd" d="M294.9,533.1l63.2,0l0,-1.3l-63.2,0l0,1.3Z" class="g1_1" />
<path fill-rule="evenodd" d="M294.9,554.9l63.2,0l0,-1.3l-63.2,0l0,1.3Z" class="g1_1" />
<path fill-rule="evenodd" d="M546.6,511.2l1.3,0l0,-44.9l-1.3,0l0,44.9Z" class="g1_1" />
<path fill-rule="evenodd" d="M609.9,511.2l1.3,0l0,-43.6l-1.3,0l0,43.6Z" class="g1_1" />
<path fill-rule="evenodd" d="M547.9,554.9l63.3,0l0,-1.3l-63.3,0l0,1.3Z" class="g1_1" />
<path fill-rule="evenodd" d="M546.6,598.6l1.3,0l0,-45l-1.3,0l0,45Z" class="g1_1" />
<path fill-rule="evenodd" d="M609.9,598.6l1.3,0l0,-43.7l-1.3,0l0,43.7Z" class="g1_1" />
<path fill-rule="evenodd" d="M293.6,554.9l1.3,0l0,-44.9l-1.3,0l0,44.9Z" class="g1_1" />
<path fill-rule="evenodd" d="M356.8,554.9l1.3,0l0,-43.7l-1.3,0l0,43.7Z" class="g1_1" />
<path fill-rule="evenodd" d="M673.1,554.9l1.3,0l0,-44.9l-1.3,0l0,44.9Z" class="g1_1" />
<path fill-rule="evenodd" d="M736.4,554.9l1.3,0l0,-43.7l-1.3,0l0,43.7Z" class="g1_1" />
<path fill-rule="evenodd" d="M799.7,511.2l1.3,0l0,-44.9l-1.3,0l0,44.9Z" class="g1_1" />
<path fill-rule="evenodd" d="M862.9,511.2l1.3,0l0,-43.6l-1.3,0l0,43.6Z" class="g1_1" />
<path fill-rule="evenodd" d="M167,489.4l1.3,0l0,-44.9l-1.3,0l0,44.9Z" class="g1_1" />
<path fill-rule="evenodd" d="M230.3,489.4l1.3,0l0,-43.6l-1.3,0l0,43.6Z" class="g1_1" />
<path fill-rule="evenodd" d="M420.1,467.6l1.3,0l0,-44.9l-1.3,0l0,44.9Z" class="g1_1" />
<path fill-rule="evenodd" d="M483.3,467.6l1.3,0l0,-43.6l-1.3,0l0,43.6Z" class="g1_1" />
<path fill-rule="evenodd" d="M926.2,380.3l1.3,0l0,-44.9l-1.3,0l0,44.9Z" class="g1_1" />
<path fill-rule="evenodd" d="M989.4,380.3l1.3,0l0,-43.6l-1.3,0l0,43.6Z" class="g1_1" />
<path fill-rule="evenodd" d="M40.6,402.2l1.2,0l0,-45l-1.2,0l0,45Z" class="g1_1" />
<path fill-rule="evenodd" d="M103.8,402.2l1.3,0l0,-43.7l-1.3,0l0,43.7Z" class="g1_1" />
<path fill-rule="evenodd" d="M547.9,118.5l63.3,0l0,-1.3l-63.3,0l0,1.3Z" class="g1_1" />
<path fill-rule="evenodd" d="M547.9,140.3l63.3,0l0,-1.3l-63.3,0l0,1.3Z" class="g1_1" />
<path fill-rule="evenodd" d="M674.4,162.1l63.3,0l0,-1.3l-63.3,0l0,1.3Z" class="g1_1" />
<path fill-rule="evenodd" d="M674.4,183.9l63.3,0l0,-1.3l-63.3,0l0,1.3Z" class="g1_1" />
<path fill-rule="evenodd" d="M801,205.8l63.2,0l0,-1.3l-63.2,0l0,1.3Z" class="g1_1" />
<path fill-rule="evenodd" d="M801,227.6l63.2,0l0,-1.3l-63.2,0l0,1.3Z" class="g1_1" />
<path fill-rule="evenodd" d="M801,249.4l63.2,0l0,-1.3l-63.2,0l0,1.3Z" class="g1_1" />
<path fill-rule="evenodd" d="M421.4,271.2l63.2,0l0,-1.3l-63.2,0l0,1.3Z" class="g1_1" />
<path fill-rule="evenodd" d="M547.9,293l63.3,0l0,-1.2l-63.3,0l0,1.2Z" class="g1_1" />
<path fill-rule="evenodd" d="M547.9,314.9l63.3,0l0,-1.3l-63.3,0l0,1.3Z" class="g1_1" />
<path fill-rule="evenodd" d="M927.5,336.7l63.2,0l0,-1.3l-63.2,0l0,1.3Z" class="g1_1" />
<path fill-rule="evenodd" d="M927.5,358.5l63.2,0l0,-1.3l-63.2,0l0,1.3Z" class="g1_1" />
<path fill-rule="evenodd" d="M927.5,380.3l63.2,0l0,-1.3l-63.2,0l0,1.3Z" class="g1_1" />
<path fill-rule="evenodd" d="M547.9,402.2l63.3,0l0,-1.3l-63.3,0l0,1.3Z" class="g1_1" />
<path fill-rule="evenodd" d="M547.9,424l63.3,0l0,-1.3l-63.3,0l0,1.3Z" class="g1_1" />
<path fill-rule="evenodd" d="M421.4,445.8l63.2,0l0,-1.3l-63.2,0l0,1.3Z" class="g1_1" />
<path fill-rule="evenodd" d="M801,467.6l63.2,0l0,-1.3l-63.2,0l0,1.3Z" class="g1_1" />
<path fill-rule="evenodd" d="M801,489.4l63.2,0l0,-1.3l-63.2,0l0,1.3Z" class="g1_1" />
<path fill-rule="evenodd" d="M801,511.2l63.2,0l0,-1.2L801,510l0,1.2Z" class="g1_1" />
<path fill-rule="evenodd" d="M674.4,533.1l63.3,0l0,-1.3l-63.3,0l0,1.3Z" class="g1_1" />
<path fill-rule="evenodd" d="M674.4,554.9l63.3,0l0,-1.3l-63.3,0l0,1.3Z" class="g1_1" />
<path fill-rule="evenodd" d="M547.9,576.7l63.3,0l0,-1.2l-63.3,0l0,1.2Z" class="g1_1" />
<path fill-rule="evenodd" d="M547.9,598.6l63.3,0l0,-1.3l-63.3,0l0,1.3Z" class="g1_1" />
<path d="M609.8,138.4l58.8,32.4l-0.4,0.9L609.4,139.2Zm59.3,29l4.8,6.9l-8.4,-0.4Z" class="g1_1" />
<path d="M609.8,226.5l57.7,-30.7L667.1,195l-57.7,30.6ZM668,199.3l4.8,-6.8l-8.4,0.2Z" class="g1_1" />
<path d="M736.3,182L794,211.9l-0.4,0.8L735.9,182.8Zm58.1,26.4l4.9,6.8l-8.4,-0.1Z" class="g1_1" />
<path d="M609.8,313.7L793.7,238.9L793.4,238l-184,74.9Zm184,-71.3l5.5,-6.3L791,235.5Z" class="g1_1" />
<path d="M863,225.8l60.3,114.5l-0.8,0.5L862.2,226.3Zm62.7,111.9l0.1,8.4L919,341.2Z" class="g1_1" />
<path d="M863,488.1L923.3,373.7l-0.8,-0.4L862.2,487.6ZM925.7,376.3l0.1,-8.4l-6.8,4.9Z" class="g1_1" />
<path d="M736.3,531.9L794,502.1l-0.4,-0.8l-57.7,29.8Zm58.1,-26.3l4.9,-6.8l-8.4,0.1Z" class="g1_1" />
<path d="M609.8,400.1l183.9,74.1l-0.4,0.9L609.4,401Zm184,70.6l5.5,6.3l-8.3,0.7Z" class="g1_1" />
<path d="M609.8,486.5l57.8,31.6l-0.5,0.9L609.4,487.3ZM668,514.6l4.8,6.9l-8.4,-0.3Z" class="g1_1" />
<path d="M609.8,574.6l57.6,-28.9L667,544.9l-57.6,28.9Zm58,-25.4l5,-6.7l-8.4,0Z" class="g1_1" />
<path d="M419.4,445.2L357.7,200.5l0.9,-0.3L420.3,445ZM354.8,202.5l1.8,-8.2l5.5,6.4Z" class="g1_1" />
<path d="M419.4,269.6L357.6,518.1l1,0.2L420.3,269.8ZM354.7,516.1l1.9,8.1l5.4,-6.3Z" class="g1_1" />
<path d="M293,182.1l-59.3,72.5l0.7,0.6l59.3,-72.5Zm-61.1,69.4l-1.8,8.2l7.7,-3.4Z" class="g1_1" />
<path d="M293,531.8L235.5,481.5l0.7,-0.7l57.4,50.3Zm-58.7,-47L231.1,477l8.2,2.1Z" class="g1_1" />
<path d="M862.6,247.9l26.6,110" class="g2_1" />
<path d="M889.2,357l-594.8,0" class="g2_1" />
<path d="M294,358.2l-2.4,-3l0.8,-0.6l2.4,3Zm-4.1,-5.1l-2.4,-2.9l0.7,-0.6l2.4,2.9ZM285.7,348l-2.4,-2.9l0.7,-0.6l2.4,2.9Zm-4.2,-5.1L279.1,340l0.8,-0.6l2.3,2.9Zm-4.1,-5.1L275,334.9l0.7,-0.6l2.4,2.9Zm-4.2,-5.1l-2.4,-2.9l0.7,-0.6l2.4,2.9ZM269,327.6l-2.4,-2.9l0.8,-0.6l2.3,2.9Zm-4.2,-5.1l-2.3,-2.9l0.7,-0.6l2.4,2.9Zm-4.1,-5l-2.4,-3l0.7,-0.6l2.4,3Zm-4.2,-5.1l-2.4,-2.9l0.7,-0.6l2.4,2.9Zm-4.2,-5.1L250,304.4l0.7,-0.6l2.4,2.9Zm-4.1,-5.1l-2.4,-2.9l0.7,-0.6l2.4,2.9ZM244,297.1l-2.4,-2.9l0.8,-0.6l2.3,2.9ZM239.8,292l-2.4,-2.9l0.8,-0.6l2.4,2.9Zm-4.1,-5.1l-1,-1.1l0.8,-0.6l0.9,1.1Zm-2.7,2l-1.9,-8.2l7.7,3.4Z" class="g1_1" />
<path d="M862.6,465.1L889.2,364.2" class="g2_1" />
<path d="M886.3,364.2l-589.1,0" class="g2_1" />
<path d="M297.9,367.6l-2.2,3.1l0.7,0.5l2.3,-3Zm-3.9,5.3l-2.3,3l0.8,0.6l2.2,-3Zm-4,5.3l-2.2,3l0.8,0.6l2.2,-3Zm-3.9,5.3l-2.2,3l0.7,0.5l2.3,-3Zm-3.9,5.2l-2.3,3l0.8,0.6l2.2,-3Zm-3.9,5.3l-2.3,3l0.8,0.6l2.2,-3Zm-4,5.3l-2.2,3l0.7,0.5l2.3,-3Zm-3.9,5.2l-2.3,3.1l0.8,0.5l2.2,-3Zm-4,5.3l-2.2,3l0.7,0.6l2.3,-3Zm-3.9,5.3l-2.2,3l0.7,0.6l2.3,-3.1Zm-3.9,5.3l-2.3,3l0.8,0.5l2.2,-3Zm-4,5.2l-2.2,3l0.8,0.6l2.2,-3Zm-3.9,5.3l-2.2,3l0.7,0.6l2.3,-3Zm-3.9,5.3l-2.3,3l0.8,0.5l2.2,-3Zm-4,5.2l-2.2,3l0.7,0.6l2.3,-3Zm-3.9,5.3l-2.2,3l0.7,0.6l2.3,-3ZM235,452l-0.5,0.6l0.8,0.6l0.4,-0.7Zm-2.4,-2.4l-1.5,8.3l7.5,-3.8Z" class="g1_1" />
<path d="M546.1,224.7l-3.2,1.9l0.4,0.8l3.3,-1.9Zm-5.7,3.4l-3.2,1.9l0.5,0.8l3.2,-1.9Zm-5.6,3.3l-3.3,1.9l0.5,0.8l3.2,-1.9Zm-5.7,3.4l-3.2,1.9l0.4,0.8l3.3,-1.9Zm-5.7,3.3l-3.2,1.9l0.5,0.8l3.2,-1.9Zm-5.6,3.3l-3.3,1.9l0.5,0.9l3.3,-2Zm-5.7,3.4l-3.2,1.9l0.4,0.8l3.3,-1.9Zm-5.7,3.3l-3.2,1.9l0.5,0.8l3.2,-1.9Zm-5.6,3.4l-3.3,1.9l0.5,0.8l3.2,-1.9Zm-5.7,3.3l-3.2,1.9l0.5,0.8l3.2,-1.9Zm-5.6,3.3l-1.3,0.8l0.5,0.8l1.2,-0.7Zm-1.8,-2.7l-4.6,7l8.4,-0.5Z" class="g1_1" />
<path d="M546.1,312.8l-3.3,-1.7l0.4,-0.8l3.3,1.7Zm-5.9,-2.9l-3.3,-1.7l0.4,-0.9l3.4,1.7Zm-5.8,-3L531,305.2l0.4,-0.8l3.4,1.7ZM528.5,304l-3.4,-1.7l0.5,-0.9l3.3,1.7Zm-5.9,-3l-3.4,-1.7l0.5,-0.8l3.3,1.7Zm-5.9,-2.9l-3.3,-1.7l0.4,-0.9l3.4,1.7Zm-5.8,-3l-3.4,-1.7l0.4,-0.8l3.4,1.7ZM505,292.2l-3.4,-1.7l0.4,-0.9l3.4,1.7Zm-5.9,-3l-3.4,-1.7l0.5,-0.8l3.3,1.7Zm-5.9,-2.9l-3.3,-1.7l0.4,-0.9l3.3,1.7Zm-5.1,1.1l-5,-6.7l8.4,0Z" class="g1_1" />
<path d="M546.1,399.3l-3.3,1.8l0.5,0.8l3.3,-1.8Zm-5.8,3.1l-3.3,1.8l0.5,0.8l3.3,-1.8Zm-5.7,3.2l-3.3,1.8l0.4,0.8l3.3,-1.8Zm-5.8,3.1l-3.3,1.8l0.5,0.9l3.3,-1.8Zm-5.8,3.2l-3.3,1.8l0.5,0.8l3.3,-1.8Zm-5.7,3.1l-3.3,1.8l0.4,0.9l3.3,-1.8Zm-5.8,3.2l-3.3,1.8l0.4,0.8l3.3,-1.8Zm-5.8,3.1l-3.3,1.9l0.5,0.8l3.3,-1.8Zm-5.8,3.2l-3.3,1.8l0.5,0.8l3.3,-1.8Zm-5.7,3.2l-3.3,1.8l0.4,0.8l3.3,-1.8Zm-5.8,3.1l0,0.1l0.4,0.8l0.1,-0.1Zm-0.5,-3.4l-4.8,6.9l8.4,-0.3Z" class="g1_1" />
<path d="M546.1,488.3l-3.3,-1.8l0.4,-0.8l3.3,1.7Zm-5.8,-3l-3.4,-1.8l0.5,-0.8l3.3,1.7Zm-5.9,-3.1l-3.3,-1.7l0.4,-0.8l3.4,1.7Zm-5.8,-3l-3.4,-1.7l0.5,-0.8l3.3,1.7Zm-5.9,-3l-3.3,-1.7l0.4,-0.9l3.4,1.8Zm-5.8,-3l-3.3,-1.7l0.4,-0.9l3.3,1.7Zm-5.8,-3l-3.4,-1.8l0.4,-0.8l3.4,1.7Zm-5.9,-3.1l-3.3,-1.7l0.4,-0.8l3.3,1.7Zm-5.8,-3L496,462.4l0.5,-0.8l3.3,1.7Zm-5.9,-3l-3.3,-1.7l0.4,-0.9l3.3,1.8ZM488,462l-4.9,-6.8l8.4,0.1Z" class="g1_1" />
<path d="M736.1,536l84,81.8" class="g2_1" />
<path d="M820.1,617.8l-399.2,0" class="g2_1" />
<path d="M418.5,618.1L416,615.3l0.7,-0.6l2.5,2.8Zm-4.3,-5l-2.5,-2.8l0.8,-0.6l2.4,2.8Zm-4.3,-5l-2.4,-2.8l0.7,-0.6l2.4,2.8Zm-4.3,-4.9l-2.4,-2.9l0.7,-0.6l2.4,2.8Zm-4.3,-5l-2.4,-2.9l0.7,-0.6l2.5,2.8Zm-4.2,-5l-2.5,-2.9l0.7,-0.6l2.5,2.8Zm-4.3,-5l-2.5,-2.9l0.8,-0.6l2.4,2.9Zm-4.3,-5l-2.4,-2.9l0.7,-0.6l2.4,2.9Zm-4.3,-5l-2.4,-2.9l0.7,-0.6l2.5,2.9Zm-4.2,-5l-2.5,-2.9l0.7,-0.6l2.5,2.9Zm-4.3,-5l-2.5,-2.9l0.8,-0.6l2.4,2.9Zm-4.3,-5L369,560.3l0.7,-0.6l2.4,2.9Zm-4.3,-5l-2.4,-2.9l0.7,-0.6l2.4,2.9Zm-4.3,-5l-2.4,-2.9l0.7,-0.6l2.5,2.9Zm-4.2,0.1l-2,-8.1l7.7,3.2Z" class="g1_1" />
<path d="M736.1,174.3L824,95.2" class="g2_1" />
<path d="M823.1,96.1l-403.3,0" class="g2_1" />
<path d="M416.5,97.6l-2.4,2.9l0.8,0.6l2.3,-3Zm-4.1,5.1l-2.4,2.9l0.8,0.6l2.3,-2.9Zm-4.1,5.1l-2.4,2.9l0.7,0.6l2.4,-2.9Zm-4.2,5.1l-2.3,3l0.7,0.6l2.4,-3Zm-4.1,5.2l-2.3,2.9l0.7,0.6l2.4,-2.9Zm-4.1,5.1l-2.3,2.9l0.7,0.6l2.3,-2.9Zm-4.1,5.1l-2.4,3l0.8,0.5l2.3,-2.9Zm-4.1,5.2l-2.4,2.9L386,137l2.4,-3Zm-4.2,5.1l-2.3,2.9l0.7,0.6l2.4,-2.9Zm-4.1,5.1l-2.3,2.9l0.7,0.6l2.4,-2.9Zm-4.1,5.1l-2.4,3l0.8,0.5l2.3,-2.9Zm-4.1,5.2l-2.4,2.9l0.8,0.6l2.3,-2.9Zm-4.1,5.1l-2.4,2.9l0.7,0.6l2.4,-2.9Zm-4.1,5.1l-1.8,2.2l0.7,0.6l1.8,-2.2Zm-3.6,-0.8l-1.8,8.2l7.7,-3.5Z" class="g1_1" />
<path d="M165.5,295.7l-2.7,2.6l0.7,0.7l2.7,-2.7Zm-4.6,4.7l-2.7,2.6l0.7,0.7l2.6,-2.7Zm-4.7,4.6l-2.6,2.7l0.7,0.7l2.6,-2.7Zm-4.6,4.7l-2.6,2.7l0.6,0.6l2.7,-2.6Zm-4.6,4.7l-2.7,2.7l0.7,0.6l2.7,-2.7Zm-4.6,4.7l-2.7,2.6l0.7,0.7l2.6,-2.7Zm-4.7,4.6l-2.6,2.7l0.7,0.7l2.6,-2.7Zm-4.6,4.7l-2.6,2.7l0.6,0.6l2.7,-2.6Zm-4.6,4.7l-2.7,2.7l0.7,0.6l2.6,-2.7Zm-4.6,4.7l-2.7,2.6l0.7,0.7l2.6,-2.7Zm-4.7,4.6l-2.6,2.7l0.7,0.7l2.6,-2.7Zm-4.6,4.7l-2.6,2.7l0.6,0.6l2.7,-2.6Zm-4.6,4.7l-1.3,1.3l0.7,0.6l1.2,-1.3Zm-2.8,-1.9l-2.6,8l8,-2.8Z" class="g1_1" />
<path d="M165.5,451.8l-3,-2.3l0.6,-0.7l3,2.3Zm-5.2,-4l-3,-2.2l0.6,-0.8l3,2.3Zm-5.2,-4l-3,-2.2l0.5,-0.8l3,2.3Zm-5.3,-3.9l-3,-2.3l0.6,-0.7l3,2.2Zm-5.2,-4l-3,-2.3l0.6,-0.7l2.9,2.3Zm-5.3,-4l-3,-2.2l0.6,-0.8l3,2.3Zm-5.2,-4l-3,-2.2l0.6,-0.8l3,2.3ZM128.9,424l-3,-2.3l0.5,-0.8l3,2.3Zm-5.3,-4l-3,-2.3l0.6,-0.7l3,2.3Zm-5.2,-4l-3,-2.2L116,413l3,2.3Zm-5.3,-4l-2.9,-2.2l0.5,-0.8l3,2.3Zm-5.8,-0.3l-3.7,-7.5l8.2,1.5Z" class="g1_1" />


<!-- Any embedded fonts defined here -->
<style type="text/css" ><![CDATA[

@font-face {
	font-family: Arial_6;
	src: url("fonts/Arial_6.woff") format("woff");
}

]]></style>

</svg>
