<svg id="svg" version="1.1" width="405" height="80" xmlns="http://www.w3.org/2000/svg" xmlns:xlink="http://www.w3.org/1999/xlink" style="display: block;"><g id="svgg"><path id="path0" d="M194.855 2.100 C 193.981 3.035,192.864 4.312,192.374 4.938 C 191.884 5.563,189.394 7.619,186.841 9.506 C 184.289 11.393,182.040 13.075,181.844 13.244 C 181.649 13.413,182.252 14.417,183.184 15.476 L 184.880 17.400 176.340 17.649 C 171.643 17.786,161.667 18.036,154.172 18.206 L 140.544 18.514 140.051 17.357 C 139.780 16.721,136.733 13.266,133.279 9.680 L 127.000 3.160 117.800 3.778 C 112.740 4.119,107.250 4.397,105.600 4.398 C 103.950 4.398,101.070 4.660,99.200 4.980 C 94.326 5.814,86.475 7.076,81.600 7.811 C 79.290 8.159,76.500 8.691,75.400 8.994 C 74.300 9.296,72.050 9.761,70.400 10.027 C 66.065 10.725,61.041 11.802,52.600 13.843 C 51.280 14.162,49.432 14.593,48.494 14.801 C 47.556 15.008,46.443 15.363,46.021 15.589 C 45.598 15.815,44.842 16.000,44.340 16.000 C 43.838 16.000,42.701 16.254,41.813 16.563 C 40.926 16.873,38.850 17.513,37.200 17.984 C 35.550 18.456,32.979 19.217,31.487 19.675 L 28.775 20.508 23.887 26.907 C 21.199 30.426,18.820 33.507,18.600 33.753 C 18.380 33.999,17.402 35.280,16.427 36.600 C 15.451 37.920,14.550 39.090,14.424 39.200 C 14.299 39.310,13.399 40.480,12.424 41.800 C 11.450 43.120,10.542 44.290,10.405 44.400 C 10.268 44.510,8.356 46.940,6.156 49.800 C -1.131 59.274,-0.866 58.757,2.032 57.835 C 4.051 57.192,11.030 55.073,17.200 53.230 C 19.510 52.539,23.110 51.446,25.200 50.800 C 27.290 50.154,31.070 49.006,33.600 48.249 C 36.130 47.491,39.239 46.560,40.509 46.178 C 41.779 45.797,42.924 45.591,43.053 45.720 C 43.182 45.849,36.788 52.450,28.844 60.389 C 20.900 68.328,14.400 74.923,14.400 75.044 C 14.400 75.272,16.126 74.979,18.200 74.398 C 21.611 73.444,32.292 70.882,36.400 70.033 C 37.390 69.828,42.340 68.653,47.400 67.420 C 52.460 66.188,57.860 64.894,59.400 64.546 C 60.940 64.197,62.830 63.768,63.600 63.592 C 64.370 63.416,66.260 62.992,67.800 62.649 C 74.358 61.191,74.041 61.400,80.180 54.500 C 82.131 52.308,82.488 52.354,84.071 55.000 C 84.795 56.210,85.525 57.200,85.693 57.200 C 85.862 57.200,86.000 57.369,86.000 57.575 C 86.000 57.781,87.935 60.913,90.300 64.536 C 92.665 68.158,94.800 71.455,95.044 71.861 C 95.450 72.538,96.004 72.589,101.644 72.469 C 107.903 72.336,113.654 72.993,121.000 74.678 C 125.061 75.609,135.718 78.813,136.278 79.271 C 136.541 79.486,137.112 79.603,137.547 79.531 C 138.274 79.411,135.826 75.731,131.471 70.400 C 131.202 70.070,130.132 68.609,129.094 67.154 L 127.207 64.508 131.704 64.242 C 134.177 64.095,147.990 63.805,162.400 63.597 C 176.810 63.390,191.480 63.112,195.000 62.980 C 198.520 62.848,214.270 62.577,230.000 62.376 C 261.402 61.977,291.677 61.370,299.854 60.976 L 305.107 60.723 306.254 58.515 C 308.005 55.142,307.915 55.096,314.693 62.791 L 315.918 64.181 318.259 63.251 C 319.546 62.739,321.894 61.708,323.475 60.960 C 327.359 59.123,326.347 58.939,334.173 62.909 C 335.954 63.812,337.171 64.205,337.573 64.007 C 337.918 63.838,339.280 63.381,340.600 62.993 C 345.258 61.621,357.886 56.567,360.000 55.230 C 360.550 54.881,361.720 54.239,362.600 53.802 C 363.480 53.365,364.290 52.907,364.400 52.785 C 364.510 52.662,365.410 52.089,366.400 51.512 C 373.374 47.446,378.568 40.812,379.081 35.314 L 379.314 32.823 382.909 29.112 C 393.570 18.106,399.816 11.522,399.943 11.155 C 400.088 10.735,397.851 10.779,377.400 11.600 C 372.340 11.803,364.780 12.081,360.600 12.216 L 353.000 12.463 349.600 14.148 L 346.200 15.833 307.800 15.356 C 286.680 15.094,263.244 14.861,255.719 14.839 L 242.038 14.800 243.297 12.700 C 244.452 10.774,247.525 7.834,251.885 4.482 C 254.329 2.603,254.205 2.522,246.200 0.782 C 245.320 0.591,233.765 0.427,220.522 0.417 L 196.444 0.400 194.855 2.100 M215.600 10.746 C 215.600 10.936,215.270 11.521,214.866 12.046 C 212.793 14.741,204.000 27.685,204.000 28.041 C 204.000 28.487,203.955 28.498,208.827 26.861 L 212.116 25.756 217.368 18.178 L 222.620 10.600 228.310 10.489 C 235.087 10.357,234.907 9.922,230.591 15.990 C 226.716 21.437,226.312 22.193,227.439 21.883 C 227.858 21.768,228.740 21.559,229.400 21.418 C 230.060 21.277,230.915 21.068,231.300 20.954 C 232.899 20.479,231.840 21.569,229.900 22.396 C 223.721 25.027,225.027 23.784,215.394 36.200 C 211.468 41.260,207.007 46.975,205.480 48.900 L 202.704 52.400 197.752 52.400 C 194.477 52.400,192.800 52.254,192.800 51.969 C 192.800 51.731,195.685 47.566,199.210 42.712 C 202.736 37.858,205.539 33.805,205.439 33.706 C 205.037 33.303,197.722 37.510,196.216 39.010 C 195.327 39.895,192.890 43.178,190.800 46.306 C 188.539 49.689,186.676 52.073,186.200 52.192 C 184.592 52.595,175.481 52.601,175.343 52.200 C 175.267 51.980,177.757 48.290,180.875 44.000 C 183.993 39.710,189.392 32.283,192.872 27.496 C 200.257 17.338,200.025 18.000,196.200 18.000 C 192.578 18.000,192.592 18.348,196.031 13.989 L 198.861 10.400 207.231 10.400 C 211.834 10.400,215.600 10.556,215.600 10.746 M126.493 15.551 C 131.389 19.784,132.047 20.482,131.680 21.052 C 130.618 22.698,117.269 31.632,112.800 33.687 C 112.030 34.041,110.382 34.794,109.139 35.359 C 107.895 35.925,105.195 36.855,103.139 37.426 C 101.082 37.997,99.167 38.537,98.882 38.627 C 98.563 38.726,99.883 40.601,102.311 43.494 C 109.939 52.589,116.400 61.131,116.400 62.123 C 116.400 62.361,114.572 62.374,111.500 62.158 C 108.805 61.968,105.585 61.854,104.345 61.905 L 102.089 61.997 100.429 59.203 C 96.124 51.957,89.909 45.381,83.992 41.814 L 80.698 39.829 74.849 45.877 L 69.000 51.926 64.200 52.752 C 57.175 53.960,51.670 55.183,49.424 56.033 C 48.337 56.444,47.357 56.690,47.245 56.579 C 46.462 55.796,64.943 39.416,75.000 31.979 C 76.320 31.003,77.490 30.101,77.600 29.974 C 77.710 29.848,78.872 28.959,80.182 27.999 C 83.191 25.794,82.858 25.712,76.117 26.995 C 73.083 27.572,69.700 28.207,68.600 28.405 C 62.202 29.559,51.163 31.840,45.200 33.239 C 38.075 34.912,36.477 35.342,32.292 36.709 C 27.219 38.367,27.030 38.298,29.026 35.519 C 34.396 28.044,36.236 26.388,40.002 25.640 C 41.211 25.400,43.280 24.955,44.600 24.651 C 51.106 23.153,66.035 20.001,72.400 18.782 C 74.710 18.340,77.500 17.804,78.600 17.592 C 95.860 14.266,110.391 12.337,120.293 12.059 C 122.380 12.000,122.401 12.012,126.493 15.551 M378.148 19.300 C 377.371 20.597,372.308 26.350,371.757 26.561 C 371.415 26.693,370.262 26.800,369.196 26.800 C 360.537 26.800,347.200 30.475,347.200 32.862 C 347.200 33.048,352.330 33.200,358.600 33.200 L 370.000 33.200 370.000 34.220 C 370.000 39.027,357.800 46.482,339.851 52.642 L 337.103 53.585 335.851 52.725 C 332.442 50.381,329.200 47.892,329.200 47.619 C 329.200 47.450,331.855 46.448,335.100 45.392 C 342.834 42.874,349.200 40.238,349.200 39.554 C 349.200 39.358,344.905 39.200,339.587 39.200 C 328.745 39.200,328.918 39.254,330.249 36.278 C 332.910 30.331,342.407 24.575,354.400 21.641 C 363.305 19.462,378.976 17.917,378.148 19.300 M114.574 19.585 C 114.119 19.769,111.959 20.216,109.774 20.579 C 102.629 21.765,98.610 22.386,98.032 22.393 C 97.274 22.402,86.318 33.282,86.701 33.646 C 86.865 33.802,88.260 33.683,89.800 33.382 C 101.817 31.032,110.644 26.834,115.300 21.256 C 116.914 19.323,116.660 18.741,114.574 19.585 M304.567 22.347 C 304.686 22.538,303.391 24.115,301.691 25.851 C 299.991 27.587,293.720 34.001,287.755 40.104 L 276.910 51.200 271.855 51.200 C 265.999 51.200,266.171 51.370,267.757 47.148 C 269.112 43.539,270.005 40.400,269.677 40.400 C 269.523 40.400,267.335 42.830,264.815 45.800 L 260.232 51.200 254.716 51.200 C 249.045 51.200,248.904 51.154,249.580 49.519 C 249.789 49.013,251.782 42.975,254.009 36.100 C 256.258 29.155,258.267 23.595,258.529 23.588 C 262.444 23.486,270.943 23.609,271.103 23.770 C 271.345 24.011,270.528 26.313,268.496 31.113 C 266.355 36.172,266.227 36.269,278.282 23.718 C 279.209 22.753,284.400 22.301,284.400 23.185 C 284.400 23.728,283.139 26.864,281.444 30.532 C 279.676 34.359,279.547 35.497,281.073 33.796 C 284.333 30.163,286.445 27.881,289.123 25.100 L 292.108 22.000 298.230 22.000 C 301.598 22.000,304.449 22.156,304.567 22.347 M320.671 22.640 C 320.806 22.993,320.751 23.398,320.548 23.540 C 319.849 24.032,314.750 31.284,314.957 31.491 C 315.071 31.605,318.098 29.516,321.682 26.849 C 329.208 21.250,328.766 21.359,331.500 24.432 C 334.147 27.407,334.340 26.925,329.185 30.200 C 320.340 35.819,319.200 36.585,319.200 36.907 C 319.200 37.088,320.550 39.188,322.200 41.574 C 325.849 46.852,325.889 46.135,321.786 49.118 C 317.556 52.194,318.528 52.474,312.995 46.586 C 310.403 43.829,308.101 41.633,307.878 41.707 C 307.655 41.782,306.008 43.903,304.220 46.421 L 300.967 51.000 294.884 51.110 C 291.538 51.171,288.809 51.081,288.819 50.910 C 288.830 50.740,290.045 48.954,291.519 46.942 C 292.994 44.930,297.503 38.760,301.541 33.230 C 305.579 27.700,309.147 22.911,309.470 22.587 C 310.371 21.686,320.323 21.733,320.671 22.640 M253.332 24.300 C 253.431 24.465,250.427 30.720,246.656 38.200 L 239.800 51.800 234.822 51.913 C 228.450 52.058,228.652 52.154,229.594 49.418 L 230.357 47.200 227.621 47.200 L 224.884 47.200 222.478 49.811 L 220.072 52.422 214.336 52.311 L 208.600 52.200 214.458 46.400 C 217.679 43.210,224.128 36.865,228.788 32.300 L 237.260 24.000 245.206 24.000 C 249.577 24.000,253.234 24.135,253.332 24.300 M184.208 26.005 C 186.689 27.712,186.690 27.638,184.087 31.500 C 171.523 50.137,173.223 48.348,164.245 52.367 L 161.489 53.600 151.568 53.600 C 146.112 53.600,141.555 53.450,141.441 53.267 C 141.276 53.000,149.887 42.007,156.700 33.786 C 158.284 31.875,158.309 31.602,156.900 31.594 C 154.290 31.579,154.315 31.118,157.119 27.513 L 158.898 25.225 163.349 25.098 C 165.797 25.028,171.098 24.933,175.128 24.886 L 182.456 24.800 184.208 26.005 M154.938 26.300 C 155.040 26.465,154.223 27.725,153.124 29.100 L 151.125 31.600 146.381 31.600 L 141.637 31.600 140.218 33.458 C 138.328 35.933,138.365 36.000,141.600 36.000 C 144.814 36.000,144.842 36.053,143.133 38.894 C 140.973 42.485,141.122 42.400,136.997 42.400 L 133.318 42.400 131.434 44.798 C 129.096 47.774,129.237 48.000,133.424 48.000 C 137.342 48.000,137.420 48.117,135.667 51.400 L 134.600 53.400 124.427 53.507 C 118.832 53.566,114.110 53.470,113.933 53.293 C 113.757 53.117,115.322 50.639,117.411 47.786 C 129.738 30.956,129.330 31.600,127.667 31.600 C 125.802 31.600,125.951 30.500,128.304 26.900 L 128.892 26.000 141.822 26.000 C 148.934 26.000,154.836 26.135,154.938 26.300 M168.903 31.700 C 166.839 33.919,157.291 47.434,157.578 47.729 C 158.716 48.899,160.601 47.787,162.996 44.532 C 169.356 35.888,172.400 31.574,172.400 31.205 C 172.400 30.402,169.762 30.775,168.903 31.700 M239.133 31.573 C 239.060 31.778,237.065 33.923,234.700 36.340 C 229.632 41.519,229.749 41.200,232.924 41.200 L 235.448 41.200 237.724 36.456 C 238.976 33.846,240.000 31.596,240.000 31.456 C 240.000 31.058,239.283 31.155,239.133 31.573 " stroke="none" fill="#000000" fill-rule="evenodd"></path><path id="path1" d="M197.123 12.657 C 196.176 13.898,194.905 15.496,194.300 16.209 C 192.793 17.985,192.810 18.000,196.200 18.000 C 199.827 18.000,199.818 17.929,196.700 22.223 C 195.325 24.116,193.570 26.538,192.800 27.606 C 192.030 28.674,189.591 32.034,187.380 35.074 C 172.832 55.075,173.571 53.007,181.114 52.590 C 187.143 52.256,186.547 52.520,188.778 49.200 C 193.012 42.897,196.076 38.801,197.097 38.075 C 198.806 36.862,205.227 33.494,205.435 33.701 C 205.537 33.803,202.736 37.858,199.210 42.712 C 195.685 47.566,192.800 51.731,192.800 51.969 C 192.800 52.254,194.481 52.400,197.763 52.400 L 202.727 52.400 204.691 49.900 C 205.771 48.525,210.223 42.810,214.585 37.200 C 225.108 23.667,223.686 25.042,229.900 22.396 C 231.840 21.569,232.899 20.479,231.300 20.954 C 230.915 21.068,230.060 21.277,229.400 21.418 C 228.740 21.559,227.858 21.768,227.439 21.883 C 226.312 22.193,226.716 21.437,230.591 15.990 C 234.907 9.922,235.087 10.357,228.311 10.489 L 222.621 10.600 218.343 16.800 C 215.989 20.210,213.619 23.632,213.075 24.403 C 212.245 25.583,211.522 25.990,208.544 26.958 C 206.595 27.591,204.775 28.193,204.500 28.297 C 203.359 28.727,209.787 18.650,214.866 12.046 C 216.095 10.448,215.873 10.400,207.223 10.400 L 198.847 10.400 197.123 12.657 M115.800 12.272 C 108.321 12.648,93.393 14.785,78.600 17.598 C 70.674 19.104,67.409 19.752,61.600 20.971 C 54.237 22.515,48.205 23.821,44.600 24.651 C 43.280 24.955,41.211 25.400,40.002 25.640 C 36.414 26.353,35.050 27.513,30.173 34.000 C 27.165 38.001,26.975 39.027,29.505 37.611 C 31.319 36.597,43.133 33.546,52.800 31.596 C 55.110 31.130,58.080 30.500,59.400 30.196 C 60.720 29.892,63.420 29.349,65.400 28.990 C 67.380 28.630,71.160 27.911,73.800 27.392 C 83.333 25.519,83.521 25.540,80.100 28.085 C 78.835 29.026,77.710 29.887,77.600 30.000 C 77.490 30.113,76.320 31.002,75.000 31.978 C 65.164 39.244,46.475 55.809,47.245 56.578 C 47.357 56.690,48.337 56.444,49.424 56.033 C 51.665 55.185,57.156 53.965,64.200 52.750 L 69.000 51.922 74.845 45.872 L 80.689 39.823 84.027 41.812 C 89.813 45.258,96.707 52.635,100.744 59.699 L 102.058 61.999 104.329 61.906 C 105.578 61.855,108.805 61.968,111.500 62.158 C 114.641 62.379,116.400 62.363,116.400 62.114 C 116.400 61.149,106.554 48.277,100.483 41.305 C 99.014 39.618,98.487 38.752,98.855 38.632 C 99.155 38.534,101.110 37.976,103.200 37.392 C 111.448 35.084,125.870 26.873,131.417 21.326 C 132.202 20.540,132.030 20.339,126.493 15.551 L 122.387 12.000 120.293 12.076 C 119.142 12.117,117.120 12.206,115.800 12.272 M210.392 14.900 C 203.552 24.824,202.000 27.266,202.000 28.103 C 202.000 30.371,203.858 30.533,209.374 28.747 C 213.789 27.318,212.911 28.208,219.957 18.014 L 224.113 12.000 227.457 12.000 C 229.295 12.000,230.800 12.101,230.800 12.224 C 230.800 12.426,228.600 15.499,227.612 16.677 C 226.511 17.989,224.800 21.044,224.800 21.697 C 224.800 22.104,224.305 22.723,223.700 23.071 C 223.095 23.420,221.970 24.518,221.200 25.510 C 220.430 26.503,218.938 28.414,217.884 29.758 C 216.830 31.101,214.940 33.520,213.684 35.133 C 212.428 36.746,210.590 39.103,209.600 40.372 C 208.610 41.641,206.378 44.506,204.640 46.740 L 201.480 50.800 198.740 50.800 C 195.573 50.800,195.578 50.807,197.322 48.641 C 198.941 46.631,204.976 38.234,206.547 35.806 C 208.425 32.904,206.985 30.677,204.071 31.975 C 197.439 34.930,194.557 37.268,190.888 42.669 C 190.166 43.731,188.627 45.950,187.467 47.600 L 185.357 50.600 181.833 50.716 L 178.310 50.832 179.145 49.716 C 179.604 49.102,182.533 45.090,185.653 40.800 C 188.774 36.510,192.122 31.920,193.094 30.600 C 202.783 17.444,203.074 16.680,198.547 16.328 L 196.910 16.200 198.469 14.100 L 200.028 12.000 206.209 12.000 L 212.391 12.000 210.392 14.900 M124.128 16.164 C 125.488 17.354,127.190 18.839,127.911 19.464 L 129.222 20.600 126.911 22.392 C 117.695 29.538,107.755 34.595,99.002 36.591 C 96.457 37.172,95.976 39.311,97.921 41.400 C 99.037 42.598,107.128 52.468,108.615 54.444 C 109.047 55.018,110.181 56.517,111.136 57.775 C 113.264 60.580,113.530 60.390,107.864 60.111 C 103.314 59.887,103.115 59.839,102.515 58.839 C 97.283 50.121,91.702 44.214,84.592 39.871 C 80.427 37.326,80.219 37.409,73.706 44.203 L 68.143 50.005 63.571 50.837 C 61.057 51.295,58.017 51.923,56.816 52.234 C 52.524 53.346,52.629 53.137,59.200 47.497 C 61.510 45.514,63.940 43.416,64.600 42.835 C 66.452 41.206,73.526 35.571,76.174 33.617 C 77.480 32.654,78.830 31.641,79.174 31.366 C 79.518 31.092,80.790 30.078,82.000 29.113 C 83.672 27.781,84.229 27.068,84.320 26.146 C 84.605 23.274,83.582 23.346,62.600 27.679 C 60.400 28.133,57.880 28.644,57.000 28.813 C 53.350 29.518,48.898 30.422,47.400 30.764 C 46.520 30.964,44.540 31.414,43.000 31.763 C 41.460 32.113,38.850 32.773,37.200 33.230 C 35.550 33.687,33.764 34.165,33.230 34.291 L 32.260 34.520 33.099 33.360 C 33.560 32.722,34.897 31.280,36.069 30.156 C 38.363 27.956,38.350 27.961,46.400 26.200 C 48.930 25.647,51.720 25.028,52.600 24.824 C 54.500 24.386,58.509 23.546,63.200 22.603 C 65.070 22.227,67.737 21.656,69.126 21.335 C 70.516 21.013,72.586 20.592,73.726 20.400 C 74.867 20.208,78.230 19.599,81.200 19.046 C 90.113 17.387,96.109 16.419,102.600 15.589 C 104.360 15.364,107.510 14.936,109.600 14.638 C 111.690 14.340,115.258 14.074,117.528 14.048 L 121.656 14.000 124.128 16.164 M113.000 17.987 C 112.340 18.160,110.450 18.519,108.800 18.784 C 107.150 19.050,104.432 19.522,102.760 19.834 C 101.088 20.145,99.234 20.400,98.640 20.400 C 95.746 20.400,84.658 31.241,84.873 33.860 C 85.355 39.720,112.098 29.832,117.373 21.844 C 119.583 18.497,117.628 16.773,113.000 17.987 M370.800 19.060 C 351.349 20.357,334.054 27.699,330.243 36.278 C 328.921 39.255,328.746 39.200,339.587 39.200 C 344.905 39.200,349.200 39.358,349.200 39.554 C 349.200 40.238,342.834 42.874,335.100 45.392 C 331.855 46.448,329.200 47.459,329.200 47.638 C 329.200 47.817,330.974 49.230,333.142 50.778 L 337.083 53.592 339.842 52.645 C 357.800 46.482,370.000 39.029,370.000 34.220 L 370.000 33.200 358.600 33.200 C 352.330 33.200,347.200 33.048,347.200 32.862 C 347.200 30.439,360.546 26.800,369.433 26.800 C 371.864 26.800,372.128 26.610,375.842 22.200 C 378.849 18.629,378.865 18.790,375.524 18.870 C 373.916 18.908,371.790 18.994,370.800 19.060 M116.400 19.545 C 116.400 21.210,110.392 26.210,105.800 28.366 C 100.135 31.025,86.400 34.802,86.400 33.700 C 86.400 33.350,97.313 22.400,97.662 22.400 C 99.246 22.400,114.772 19.762,115.096 19.438 C 115.457 19.076,116.400 19.154,116.400 19.545 M372.783 22.700 C 371.837 23.745,371.036 24.643,371.003 24.696 C 370.969 24.748,368.615 24.986,365.771 25.223 C 353.572 26.240,345.200 29.335,345.200 32.826 C 345.200 34.716,345.574 34.780,357.233 34.893 L 368.200 35.000 366.089 37.112 C 362.103 41.100,355.666 44.547,343.465 49.230 C 337.316 51.589,337.757 51.566,335.071 49.684 L 332.907 48.168 337.353 46.656 C 350.114 42.319,352.531 40.775,350.633 38.176 C 350.105 37.454,349.436 37.392,341.030 37.279 C 330.718 37.140,331.146 37.377,334.544 33.690 C 340.146 27.613,350.494 23.559,365.400 21.602 C 367.380 21.342,369.270 21.076,369.600 21.011 C 369.930 20.946,371.168 20.872,372.351 20.846 L 374.502 20.800 372.783 22.700 M291.375 22.728 C 290.492 23.557,283.105 31.485,281.244 33.600 C 279.561 35.514,279.629 34.461,281.444 30.532 C 283.139 26.864,284.400 23.728,284.400 23.185 C 284.400 22.973,283.238 22.800,281.817 22.800 L 279.235 22.800 274.157 27.997 C 271.364 30.856,268.826 33.556,268.517 33.997 C 267.825 34.986,267.029 35.054,267.322 34.100 C 267.440 33.715,268.361 31.386,269.368 28.924 C 270.376 26.462,271.200 24.257,271.200 24.024 C 271.200 23.743,268.993 23.600,264.636 23.600 L 258.072 23.600 254.016 36.100 C 251.785 42.975,249.788 49.013,249.580 49.519 C 248.904 51.154,249.046 51.200,254.700 51.200 L 260.200 51.199 264.772 45.800 C 270.639 38.869,270.684 38.888,267.812 47.092 C 266.281 51.466,266.019 51.200,271.855 51.200 L 276.910 51.200 287.743 40.100 C 293.701 33.995,299.970 27.577,301.673 25.838 C 303.377 24.099,304.676 22.524,304.562 22.338 C 304.100 21.591,292.212 21.943,291.375 22.728 M309.789 22.306 C 309.319 22.642,307.014 25.723,299.993 35.400 C 297.280 39.140,293.654 44.090,291.936 46.400 C 290.218 48.710,288.810 50.740,288.806 50.910 C 288.803 51.081,291.538 51.171,294.884 51.110 L 300.967 51.000 304.220 46.421 C 306.008 43.903,307.655 41.782,307.879 41.707 C 308.103 41.632,310.412 43.828,313.010 46.586 C 318.543 52.459,317.601 52.160,321.570 49.300 C 325.710 46.317,325.685 46.615,322.203 41.578 C 320.551 39.190,319.200 37.074,319.200 36.877 C 319.200 36.681,322.439 34.468,326.398 31.960 C 330.358 29.452,333.540 27.228,333.471 27.019 C 333.206 26.212,329.374 22.053,328.872 22.027 C 328.390 22.002,327.093 22.851,323.414 25.600 C 317.738 29.841,315.119 31.652,314.931 31.464 C 314.745 31.278,318.280 26.218,320.242 23.862 C 321.548 22.295,320.763 22.000,315.313 22.006 C 312.501 22.009,310.015 22.144,309.789 22.306 M228.598 32.500 C 223.819 37.175,217.410 43.437,214.355 46.415 C 211.300 49.393,208.800 51.958,208.800 52.115 C 208.800 52.272,211.313 52.400,214.385 52.400 L 219.969 52.400 222.485 49.817 C 225.087 47.145,225.834 46.878,229.878 47.166 C 230.219 47.190,230.136 47.841,229.594 49.418 C 228.652 52.154,228.450 52.058,234.822 51.913 L 239.800 51.800 246.653 38.200 C 250.423 30.720,253.427 24.465,253.330 24.300 C 253.232 24.135,249.583 24.000,245.219 24.000 L 237.285 24.000 228.598 32.500 M298.379 26.300 C 297.203 27.565,291.597 33.325,285.922 39.100 L 275.603 49.600 272.402 49.600 C 270.641 49.600,269.200 49.444,269.200 49.253 C 269.200 49.062,269.749 47.239,270.421 45.201 C 272.785 38.028,270.733 35.833,266.383 40.880 C 265.188 42.266,263.707 43.940,263.090 44.600 C 262.473 45.260,261.309 46.655,260.502 47.700 L 259.036 49.600 255.275 49.600 C 252.436 49.600,251.559 49.477,251.697 49.100 C 251.798 48.825,252.465 46.800,253.181 44.600 C 253.897 42.400,254.636 40.240,254.822 39.800 C 255.009 39.360,256.136 35.940,257.328 32.200 L 259.495 25.400 264.142 25.287 L 268.790 25.175 268.345 26.287 C 267.218 29.107,266.261 31.533,265.691 33.012 C 264.771 35.399,265.236 36.800,266.949 36.800 C 268.444 36.800,267.986 37.188,275.368 29.666 C 280.616 24.319,282.605 23.022,281.450 25.700 C 281.142 26.415,280.240 28.501,279.445 30.335 C 277.406 35.043,277.579 36.400,280.218 36.400 C 281.327 36.400,282.069 35.747,286.438 30.924 C 293.326 23.321,292.317 24.000,296.733 24.000 L 300.516 24.000 298.379 26.300 M317.192 24.300 C 317.188 24.465,316.193 25.935,314.983 27.568 C 310.412 33.730,312.327 36.251,318.256 31.878 C 319.545 30.927,322.371 28.838,324.534 27.237 L 328.469 24.325 329.434 25.232 C 330.959 26.664,330.760 26.883,324.000 31.188 L 317.600 35.263 317.600 36.851 C 317.600 38.136,318.058 39.105,320.000 41.937 C 322.865 46.113,322.847 45.825,320.359 47.720 L 318.364 49.241 313.738 44.420 C 307.419 37.836,307.665 37.814,302.452 45.442 L 299.747 49.400 296.073 49.515 C 291.850 49.647,291.912 49.720,293.938 47.037 C 295.556 44.894,300.041 38.767,303.379 34.142 C 304.467 32.634,306.589 29.735,308.094 27.700 L 310.831 24.000 314.016 24.000 C 315.767 24.000,317.196 24.135,317.192 24.300 M163.349 25.098 L 158.898 25.225 157.119 27.513 C 154.315 31.118,154.290 31.579,156.900 31.594 C 158.509 31.603,158.686 31.337,149.609 42.563 C 145.001 48.262,141.324 53.077,141.439 53.263 C 141.553 53.448,146.112 53.600,151.568 53.600 L 161.489 53.600 164.245 52.367 C 173.223 48.348,171.523 50.137,184.087 31.500 C 186.690 27.638,186.689 27.712,184.208 26.005 L 182.456 24.800 175.128 24.886 C 171.098 24.933,165.797 25.028,163.349 25.098 M250.415 25.900 C 250.423 26.065,247.768 31.554,244.515 38.097 L 238.600 49.994 235.108 49.997 L 231.615 50.000 231.870 48.140 C 232.216 45.615,231.596 45.200,227.481 45.200 L 224.315 45.200 221.427 48.000 L 218.539 50.800 215.668 50.800 L 212.796 50.800 223.498 40.268 C 229.384 34.475,235.190 28.806,236.400 27.672 L 238.600 25.608 244.500 25.604 C 247.745 25.602,250.407 25.735,250.415 25.900 M127.472 28.495 C 125.911 31.273,125.927 31.600,127.624 31.600 C 129.213 31.600,129.304 31.403,124.900 37.479 C 122.755 40.438,120.640 43.365,120.200 43.983 C 119.760 44.601,118.106 46.883,116.525 49.054 C 114.944 51.224,113.786 53.138,113.952 53.307 C 114.118 53.476,118.832 53.566,124.427 53.507 L 134.600 53.400 135.667 51.400 C 137.420 48.117,137.342 48.000,133.424 48.000 C 129.243 48.000,129.105 47.782,131.400 44.800 L 133.247 42.400 136.961 42.400 C 141.126 42.400,140.971 42.488,143.133 38.894 C 144.842 36.053,144.814 36.000,141.600 36.000 C 138.365 36.000,138.328 35.933,140.218 33.458 L 141.637 31.600 146.382 31.600 L 151.127 31.600 153.138 29.041 C 154.244 27.634,155.040 26.374,154.908 26.241 C 154.775 26.108,148.863 26.000,141.770 26.000 L 128.873 26.000 127.472 28.495 M182.682 27.313 L 183.920 28.226 182.701 30.013 C 180.604 33.087,175.876 39.945,174.073 42.527 C 173.124 43.887,171.981 45.585,171.534 46.300 C 171.087 47.015,170.569 47.600,170.384 47.600 C 170.199 47.600,168.552 48.287,166.724 49.126 C 161.078 51.718,161.607 51.626,153.049 51.509 L 145.107 51.400 147.435 48.400 C 148.716 46.750,149.867 45.310,149.994 45.200 C 150.392 44.855,158.603 34.650,159.319 33.611 C 160.218 32.305,160.178 31.378,159.180 30.380 L 158.360 29.560 159.208 28.187 L 160.057 26.814 169.928 26.700 C 175.358 26.637,180.170 26.544,180.622 26.493 C 181.075 26.442,182.002 26.811,182.682 27.313 M150.963 28.600 C 150.326 29.573,150.179 29.600,145.618 29.600 L 140.929 29.600 139.755 30.900 C 135.763 35.322,135.745 37.410,139.697 37.674 L 141.573 37.800 140.747 39.100 C 139.924 40.396,139.912 40.400,136.593 40.400 C 132.338 40.400,132.371 40.384,129.785 43.690 C 126.454 47.946,126.914 49.600,131.429 49.600 C 133.222 49.600,133.998 49.751,133.994 50.100 C 133.976 51.542,133.497 51.619,125.270 51.509 L 117.198 51.400 119.899 47.731 C 121.385 45.712,124.130 41.955,126.000 39.380 C 127.870 36.806,129.625 34.465,129.900 34.178 C 130.641 33.406,130.537 30.388,129.749 29.812 C 129.220 29.425,129.185 29.175,129.563 28.468 C 130.023 27.610,130.154 27.600,140.823 27.600 L 151.618 27.600 150.963 28.600 M168.162 29.506 C 167.921 29.668,166.133 31.960,164.190 34.600 C 162.246 37.240,159.522 40.930,158.136 42.800 C 154.405 47.836,154.630 49.600,159.005 49.600 C 161.977 49.600,163.464 48.021,171.188 36.664 C 171.511 36.189,172.366 35.009,173.088 34.042 C 174.438 32.234,174.764 30.524,173.920 29.680 C 173.399 29.159,168.882 29.023,168.162 29.506 M234.298 33.700 C 226.804 41.459,226.493 43.200,232.596 43.200 C 236.687 43.200,236.592 43.280,239.437 37.441 C 242.662 30.826,242.741 29.200,239.842 29.200 C 238.839 29.200,237.933 29.935,234.298 33.700 M172.400 31.240 C 172.400 31.680,162.602 45.393,161.069 47.100 C 160.277 47.981,157.881 48.378,157.461 47.698 C 157.280 47.406,167.214 33.516,168.903 31.700 C 169.783 30.754,172.400 30.410,172.400 31.240 M240.000 31.456 C 240.000 31.596,238.976 33.846,237.724 36.456 L 235.448 41.200 232.904 41.200 C 229.790 41.200,229.692 41.434,235.200 35.677 C 239.111 31.589,240.000 30.808,240.000 31.456 " stroke="none" fill="#ffffff" fill-rule="evenodd"></path><path id="path2" d="M198.469 14.100 L 196.910 16.200 198.547 16.328 C 203.074 16.680,202.783 17.444,193.094 30.600 C 192.122 31.920,188.774 36.510,185.653 40.800 C 182.533 45.090,179.604 49.102,179.145 49.716 L 178.310 50.832 181.833 50.716 L 185.357 50.600 187.467 47.600 C 188.627 45.950,190.166 43.731,190.888 42.669 C 194.557 37.268,197.439 34.930,204.071 31.975 C 206.985 30.677,208.425 32.904,206.547 35.806 C 204.976 38.234,198.941 46.631,197.322 48.641 C 195.578 50.807,195.573 50.800,198.740 50.800 L 201.480 50.800 204.640 46.740 C 206.378 44.506,208.610 41.641,209.600 40.372 C 210.590 39.103,212.428 36.746,213.684 35.133 C 214.940 33.520,216.830 31.101,217.884 29.758 C 218.938 28.414,220.430 26.503,221.200 25.510 C 221.970 24.518,223.095 23.420,223.700 23.071 C 224.305 22.723,224.800 22.104,224.800 21.697 C 224.800 21.044,226.511 17.989,227.612 16.677 C 228.600 15.499,230.800 12.426,230.800 12.224 C 230.800 12.101,229.295 12.000,227.457 12.000 L 224.113 12.000 219.957 18.014 C 212.911 28.208,213.789 27.318,209.374 28.747 C 203.858 30.533,202.000 30.371,202.000 28.103 C 202.000 27.266,203.552 24.824,210.392 14.900 L 212.391 12.000 206.209 12.000 L 200.028 12.000 198.469 14.100 M109.600 14.638 C 107.510 14.936,104.360 15.364,102.600 15.589 C 96.109 16.419,90.113 17.387,81.200 19.046 C 78.230 19.599,74.867 20.208,73.726 20.400 C 72.586 20.592,70.516 21.013,69.126 21.335 C 67.737 21.656,65.070 22.227,63.200 22.603 C 58.509 23.546,54.500 24.386,52.600 24.824 C 51.720 25.028,48.930 25.647,46.400 26.200 C 38.350 27.961,38.363 27.956,36.069 30.156 C 34.897 31.280,33.560 32.722,33.099 33.360 L 32.260 34.520 33.230 34.291 C 33.764 34.165,35.550 33.687,37.200 33.230 C 38.850 32.773,41.460 32.113,43.000 31.763 C 44.540 31.414,46.520 30.964,47.400 30.764 C 48.898 30.422,53.350 29.518,57.000 28.813 C 57.880 28.644,60.400 28.133,62.600 27.679 C 83.582 23.346,84.605 23.274,84.320 26.146 C 84.229 27.068,83.672 27.781,82.000 29.113 C 80.790 30.078,79.518 31.092,79.174 31.366 C 78.830 31.641,77.480 32.654,76.174 33.617 C 73.526 35.571,66.452 41.206,64.600 42.835 C 63.940 43.416,61.510 45.514,59.200 47.497 C 52.629 53.137,52.524 53.346,56.816 52.234 C 58.017 51.923,61.057 51.295,63.571 50.837 L 68.143 50.005 73.706 44.203 C 80.219 37.409,80.427 37.326,84.592 39.871 C 91.702 44.214,97.283 50.121,102.515 58.839 C 103.115 59.839,103.314 59.887,107.864 60.111 C 113.530 60.390,113.264 60.580,111.136 57.775 C 110.181 56.517,109.047 55.018,108.615 54.444 C 107.128 52.468,99.037 42.598,97.921 41.400 C 95.976 39.311,96.457 37.172,99.002 36.591 C 107.755 34.595,117.695 29.538,126.911 22.392 L 129.222 20.600 127.911 19.464 C 127.190 18.839,125.488 17.354,124.128 16.164 L 121.656 14.000 117.528 14.048 C 115.258 14.074,111.690 14.340,109.600 14.638 M117.771 18.229 C 121.186 21.643,109.913 30.019,97.144 33.555 C 87.397 36.255,85.075 36.312,84.873 33.860 C 84.658 31.241,95.746 20.400,98.640 20.400 C 99.234 20.400,101.088 20.145,102.760 19.834 C 104.432 19.522,107.150 19.050,108.800 18.784 C 110.450 18.519,112.340 18.160,113.000 17.987 C 115.027 17.455,117.103 17.560,117.771 18.229 M369.600 21.011 C 369.270 21.076,367.380 21.342,365.400 21.602 C 350.494 23.559,340.146 27.613,334.544 33.690 C 331.146 37.377,330.718 37.140,341.030 37.279 C 349.436 37.392,350.105 37.454,350.633 38.176 C 352.531 40.775,350.114 42.319,337.353 46.656 L 332.907 48.168 335.071 49.684 C 337.757 51.566,337.316 51.589,343.465 49.230 C 355.666 44.547,362.103 41.100,366.089 37.112 L 368.200 35.000 357.233 34.893 C 345.574 34.780,345.200 34.716,345.200 32.826 C 345.200 29.335,353.572 26.240,365.771 25.223 C 368.615 24.986,370.969 24.748,371.003 24.696 C 371.036 24.643,371.837 23.745,372.783 22.700 L 374.502 20.800 372.351 20.846 C 371.168 20.872,369.930 20.946,369.600 21.011 M292.175 24.724 C 291.749 25.122,289.167 27.912,286.438 30.924 C 282.069 35.747,281.327 36.400,280.218 36.400 C 277.579 36.400,277.406 35.043,279.445 30.335 C 280.240 28.501,281.142 26.415,281.450 25.700 C 282.605 23.022,280.616 24.319,275.368 29.666 C 267.986 37.188,268.444 36.800,266.949 36.800 C 265.236 36.800,264.771 35.399,265.691 33.012 C 266.261 31.533,267.218 29.107,268.345 26.287 L 268.790 25.175 264.142 25.287 L 259.495 25.400 257.328 32.200 C 256.136 35.940,255.009 39.360,254.822 39.800 C 254.636 40.240,253.897 42.400,253.181 44.600 C 252.465 46.800,251.798 48.825,251.697 49.100 C 251.559 49.477,252.436 49.600,255.275 49.600 L 259.036 49.600 260.502 47.700 C 261.309 46.655,262.473 45.260,263.090 44.600 C 263.707 43.940,265.188 42.266,266.383 40.880 C 270.733 35.833,272.785 38.028,270.421 45.201 C 269.749 47.239,269.200 49.062,269.200 49.253 C 269.200 49.444,270.641 49.600,272.402 49.600 L 275.603 49.600 285.922 39.100 C 291.597 33.325,297.203 27.565,298.379 26.300 L 300.516 24.000 296.733 24.000 C 293.636 24.000,292.810 24.131,292.175 24.724 M308.094 27.700 C 306.589 29.735,304.467 32.634,303.379 34.142 C 300.041 38.767,295.556 44.894,293.938 47.037 C 291.912 49.720,291.850 49.647,296.073 49.515 L 299.747 49.400 302.452 45.442 C 307.665 37.814,307.419 37.836,313.738 44.420 L 318.364 49.241 320.359 47.720 C 322.847 45.825,322.865 46.113,320.000 41.937 C 318.058 39.105,317.600 38.136,317.600 36.851 L 317.600 35.263 324.000 31.188 C 330.760 26.883,330.959 26.664,329.434 25.232 L 328.469 24.325 324.534 27.237 C 322.371 28.838,319.545 30.927,318.256 31.878 C 312.327 36.251,310.412 33.730,314.983 27.568 C 317.750 23.837,317.795 24.000,314.016 24.000 L 310.831 24.000 308.094 27.700 M236.400 27.672 C 235.190 28.806,229.384 34.475,223.498 40.268 L 212.796 50.800 215.668 50.800 L 218.539 50.800 221.427 48.000 L 224.315 45.200 227.481 45.200 C 231.596 45.200,232.216 45.615,231.870 48.140 L 231.615 50.000 235.108 49.997 L 238.600 49.994 244.515 38.097 C 247.768 31.554,250.423 26.065,250.415 25.900 C 250.407 25.735,247.745 25.602,244.500 25.604 L 238.600 25.608 236.400 27.672 M169.928 26.700 L 160.057 26.814 159.208 28.187 L 158.360 29.560 159.180 30.380 C 160.178 31.378,160.218 32.305,159.319 33.611 C 158.603 34.650,150.392 44.855,149.994 45.200 C 149.867 45.310,148.716 46.750,147.435 48.400 L 145.107 51.400 153.049 51.509 C 161.607 51.626,161.078 51.718,166.724 49.126 C 168.552 48.287,170.199 47.600,170.384 47.600 C 170.569 47.600,171.087 47.015,171.534 46.300 C 171.981 45.585,173.124 43.887,174.073 42.527 C 175.876 39.945,180.604 33.087,182.701 30.013 L 183.920 28.226 182.682 27.313 C 182.002 26.811,181.075 26.442,180.622 26.493 C 180.170 26.544,175.358 26.637,169.928 26.700 M129.563 28.468 C 129.185 29.175,129.220 29.425,129.749 29.812 C 130.537 30.388,130.641 33.406,129.900 34.178 C 129.625 34.465,127.870 36.806,126.000 39.380 C 124.130 41.955,121.385 45.712,119.899 47.731 L 117.198 51.400 125.270 51.509 C 133.497 51.619,133.976 51.542,133.994 50.100 C 133.998 49.751,133.222 49.600,131.429 49.600 C 126.914 49.600,126.454 47.946,129.785 43.690 C 132.371 40.384,132.338 40.400,136.593 40.400 C 139.912 40.400,139.924 40.396,140.747 39.100 L 141.573 37.800 139.697 37.674 C 135.745 37.410,135.763 35.322,139.755 30.900 L 140.929 29.600 145.618 29.600 C 150.179 29.600,150.326 29.573,150.963 28.600 L 151.618 27.600 140.823 27.600 C 130.154 27.600,130.023 27.610,129.563 28.468 M173.920 29.680 C 174.764 30.524,174.438 32.234,173.088 34.042 C 172.366 35.009,171.511 36.189,171.188 36.664 C 163.464 48.021,161.977 49.600,159.005 49.600 C 154.630 49.600,154.405 47.836,158.136 42.800 C 159.522 40.930,162.246 37.240,164.190 34.600 C 166.133 31.960,167.921 29.668,168.162 29.506 C 168.882 29.023,173.399 29.159,173.920 29.680 M241.520 29.680 C 242.626 30.786,238.039 42.239,236.209 42.941 C 233.405 44.017,228.398 42.946,228.401 41.271 C 228.409 37.826,239.694 27.854,241.520 29.680 " stroke="none" fill="#ff0000" fill-rule="evenodd"></path></g></svg>